<svg width="52" height="52" viewBox="0 0 52 52" fill="none" xmlns="http://www.w3.org/2000/svg">
<path d="M44.3333 22.1833C44.4158 19.7977 43.8941 17.43 42.8167 15.3C42.0857 14.426 41.0712 13.8362 39.95 13.6333C35.3125 13.2125 30.6559 13.04 26 13.1166C21.3611 13.0366 16.7212 13.2035 12.1 13.6166C11.1864 13.7828 10.3409 14.2114 9.66667 14.85C8.16667 16.2333 8 18.6 7.83334 20.6C7.59152 24.1959 7.59152 27.804 7.83334 31.4C7.88155 32.5256 8.04916 33.643 8.33334 34.7333C8.5343 35.5751 8.94088 36.3539 9.51667 37C10.1955 37.6724 11.0606 38.1253 12 38.3C15.5932 38.7435 19.2137 38.9273 22.8333 38.85C28.6667 38.9333 33.7833 38.85 39.8333 38.3833C40.7958 38.2194 41.6853 37.7659 42.3833 37.0833C42.8499 36.6165 43.1985 36.0451 43.4 35.4166C43.9961 33.5877 44.2888 31.6735 44.2667 29.75C44.3333 28.8166 44.3333 23.1833 44.3333 22.1833ZM22.2333 30.75V20.4333L32.1 25.6166C29.3333 27.15 25.6833 28.8833 22.2333 30.75Z" fill="white"/>
<rect x="0.5" y="0.5" width="51" height="51" rx="9.5" stroke="white"/>
</svg>
