<svg width="52" height="52" viewBox="0 0 52 52" fill="none" xmlns="http://www.w3.org/2000/svg">
<path d="M44.5684 14.4488C43.2016 15.056 41.7332 15.4644 40.192 15.6488C41.766 14.706 42.9728 13.2136 43.5412 11.434C42.07 12.3068 40.4392 12.9408 38.702 13.2836C37.3124 11.8024 35.3328 10.8768 33.1416 10.8768C28.2984 10.812 24.5748 15.5436 25.7208 20.2308C19.3892 19.9136 13.776 16.88 10.0168 12.2692C7.96521 15.6148 9.13001 20.3992 12.3752 22.4416C11.1268 22.4016 9.95121 22.0588 8.92441 21.4888C8.87681 25.2108 11.5172 28.3532 15.036 29.0544C13.9548 29.356 12.7092 29.4032 11.5952 29.1856C12.5652 32.212 15.3788 34.416 18.7124 34.4772C15.6984 36.8856 11.4788 38.1412 7.43201 37.6324C23.7048 47.6472 41.694 34.5264 40.7652 18.392C42.2544 17.3168 43.5472 15.9756 44.5684 14.4488Z" fill="white"/>
<rect x="0.5" y="0.5" width="51" height="51" rx="9.5" stroke="white"/>
</svg>
